<svg width="72" height="72" viewBox="0 0 72 72" fill="none" xmlns="http://www.w3.org/2000/svg">
<path d="M68.1062 0H3.89347C1.74171 0 0 1.75186 0 3.89347V49.0192C0 51.171 1.75186 52.9127 3.89347 52.9127H16.0485V50.3103H3.89347C3.18187 50.3103 2.60241 49.7275 2.60241 49.0192V11.2774H69.3976V49.0227C69.3976 49.7343 68.8148 50.3138 68.1065 50.3138H55.9515V52.9162H68.1065C70.2583 52.9162 72 51.1643 72 49.0227V3.89433C72 1.74257 70.2481 0.000867821 68.1065 0.000867821L68.1062 0ZM2.6018 8.6747V3.89347C2.6018 3.18187 3.18464 2.60241 3.89286 2.60241H68.103C68.8146 2.60241 69.394 3.18525 69.394 3.89347V8.6747H2.6018ZM22.5536 51.6145V61.2954C22.5536 61.9359 22.0318 62.4577 21.3914 62.4577H14.5906C14.001 59.9772 11.7713 58.1203 9.10791 58.1203C6.00402 58.1203 3.46936 60.655 3.46936 63.7589C3.46936 66.8628 6.00402 69.3974 9.10791 69.3974C11.7713 69.3974 14.001 67.5405 14.5906 65.0601H21.3914C23.4651 65.0601 25.156 63.3692 25.156 61.2954V51.6145H22.5536ZM9.10783 66.7952C7.43387 66.7952 6.07168 65.433 6.07168 63.759C6.07168 62.0851 7.43387 60.7229 9.10783 60.7229C10.7818 60.7229 12.144 62.0851 12.144 63.759C12.144 65.433 10.7818 66.7952 9.10783 66.7952ZM37.3006 60.8788V48.1443H34.6982V60.8788C32.2177 61.4684 30.3608 63.6981 30.3608 66.3615C30.3608 69.4653 32.8955 72 35.9994 72C39.1033 72 41.6379 69.4653 41.6379 66.3615C41.6379 63.6981 39.781 61.4684 37.3006 60.8788ZM35.9994 69.3976C34.3254 69.3976 32.9632 68.0354 32.9632 66.3615C32.9632 64.6875 34.3254 63.3253 35.9994 63.3253C37.6733 63.3253 39.0355 64.6875 39.0355 66.3615C39.0355 68.0354 37.6733 69.3976 35.9994 69.3976ZM62.891 58.1205C60.2276 58.1205 57.9979 59.9774 57.4083 62.4578H50.6075C49.9671 62.4578 49.4453 61.936 49.4453 61.2956V51.6146H46.8429V61.2956C46.8429 63.3694 48.5337 65.0602 50.6075 65.0602H57.4083C57.9979 67.5407 60.2276 69.3976 62.891 69.3976C65.9949 69.3976 68.5295 66.8629 68.5295 63.759C68.5295 60.6551 65.9949 58.1205 62.891 58.1205ZM62.891 66.7952C61.217 66.7952 59.8548 65.433 59.8548 63.759C59.8548 62.0851 61.217 60.7229 62.891 60.7229C64.5649 60.7229 65.9271 62.0851 65.9271 63.759C65.9271 65.433 64.5649 66.7952 62.891 66.7952ZM4.77048 4.33735H6.50542V6.93976H4.77048V4.33735ZM9.10783 4.33735H10.8428V6.93976H9.10783V4.33735ZM13.4452 4.33735H15.1801V6.93976H13.4452V4.33735ZM45.4904 37.6838L53.2468 29.9274L45.4904 22.171L47.3304 20.331L56.0051 29.0057C56.5167 29.5173 56.5167 30.3408 56.0051 30.8457L47.3304 39.5204L45.4904 37.6804V37.6838ZM26.5075 22.1708L18.7511 29.9272L26.5075 37.6836L24.6675 39.5236L15.9928 30.8489C15.4812 30.3372 15.4812 29.5138 15.9928 29.0089L24.6675 20.3342L26.5075 22.1742V22.1708ZM32.8746 41.6715L30.445 40.7363L39.1197 18.1821L41.5493 19.1173L32.8746 41.6715Z" fill="#029CF5"/>
</svg>
