<svg width="68" height="68" viewBox="0 0 68 68" fill="none" xmlns="http://www.w3.org/2000/svg">
<path fill-rule="evenodd" clip-rule="evenodd" d="M51.568 43.5673L59.9989 50.1235C61.6438 51.4057 62.6617 53.3335 62.792 55.4159C62.9192 57.4982 62.1498 59.5382 60.6774 61.0143C59.293 62.3964 57.7662 63.9242 56.4878 65.179C54.1672 67.4918 50.8318 68.4739 47.6265 67.7828H47.6205C21.416 62.0691 5.64782 46.2343 0.203576 20.3613L0.200547 20.3522C-0.459866 17.1543 0.533786 13.8383 2.84217 11.5287L7.03183 7.33969C8.50411 5.86358 10.5429 5.09366 12.6241 5.22395C14.7054 5.35125 16.6321 6.36974 17.9135 8.01564L24.4661 16.4512C26.72 19.3459 26.4655 23.4652 23.8724 26.0599C23.4634 26.4691 23.0544 26.8753 22.6879 27.2724C22.6667 27.2936 22.6485 27.3148 22.6273 27.336C22.0154 27.9453 21.779 28.8334 22.0032 29.6639C24.3025 38.087 29.6435 43.6375 38.1716 46.1772C39.0198 46.4258 39.9407 46.1924 40.5648 45.5619L41.9644 44.1646C44.5576 41.5699 48.6747 41.3151 51.568 43.5673ZM31.2165 17.0812C29.8805 17.0055 28.8565 15.8628 28.9293 14.526C29.002 13.1892 30.1471 12.1678 31.4801 12.2375C37.5935 12.577 43.604 15.0777 48.2688 19.7426C52.9311 24.4074 55.4304 30.4245 55.7667 36.5383C55.8394 37.8751 54.8184 39.0178 53.4795 39.0936C52.1435 39.1663 51.0014 38.1388 50.9287 36.8051C50.653 31.8432 48.6232 26.9573 44.8395 23.1714C41.0527 19.3856 36.1752 17.3541 31.2165 17.0812ZM32.5312 4.84739C31.1952 4.82011 30.1289 3.71075 30.1562 2.374C30.1834 1.03422 31.2922 -0.0297071 32.6282 0.000633121C41.6282 0.182504 50.5717 3.70462 57.4328 10.5701C64.294 17.4355 67.8149 26.3865 67.9995 35.3885C68.0267 36.7283 66.9634 37.8346 65.6274 37.8649C64.2884 37.8922 63.1827 36.8253 63.1554 35.4885C62.9949 27.6924 59.9473 19.9421 54.0065 14.0013C48.0657 8.05724 40.3222 5.00801 32.5312 4.84739Z" fill="#029CF5"/>
</svg>
